<?xml version="1.0" encoding="UTF-8" standalone="no"?>
<!DOCTYPE svg PUBLIC "-//W3C//DTD SVG 1.1//EN" "http://www.w3.org/Graphics/SVG/1.1/DTD/svg11.dtd">
<svg width="100%" height="100%" viewBox="0 0 48 46" version="1.1" xmlns="http://www.w3.org/2000/svg" xmlns:xlink="http://www.w3.org/1999/xlink" xml:space="preserve" xmlns:serif="http://www.serif.com/" style="fill-rule:evenodd;clip-rule:evenodd;stroke-linejoin:round;stroke-miterlimit:2;">
    <g transform="matrix(-0.957747,-1.1729e-16,1.1729e-16,-0.957747,46.8534,46)">
        <path d="M25.946,44.938C25.282,45.783 23.925,45.313 23.925,44.24L23.925,33.937C23.925,33.936 23.925,33.936 23.925,33.935C23.925,32.695 22.905,31.675 21.665,31.675C21.664,31.675 21.664,31.675 21.663,31.675L10.287,31.675C9.367,31.675 8.831,30.635 9.367,29.887L16.847,19.416C17.917,17.919 16.847,15.838 15.005,15.838L1.237,15.838C0.317,15.838 -0.219,14.798 0.317,14.05L10.013,0.474C10.227,0.177 10.569,0 10.933,0L39.827,0C40.747,0 41.283,1.04 40.747,1.788L33.267,12.259C32.197,13.757 33.267,15.838 35.109,15.838L46.486,15.838C47.429,15.838 47.959,16.926 47.376,17.668L25.947,44.94L25.946,44.938Z" style="fill-rule:nonzero;"/>
    </g>
</svg>
